<?xml version="1.0" encoding="UTF-8" standalone="no"?>
<svg
   xmlns:dc="http://purl.org/dc/elements/1.1/"
   xmlns:cc="http://creativecommons.org/ns#"
   xmlns:rdf="http://www.w3.org/1999/02/22-rdf-syntax-ns#"
   xmlns:svg="http://www.w3.org/2000/svg"
   xmlns="http://www.w3.org/2000/svg"
   height="512px"
   width="512px"
   xml:space="preserve"
   enable-background="new 0 0 91 91"
   viewBox="0 0 91 91"
   y="0px"
   x="0px"
   id="Layer_1"
   version="1.1"><metadata
   id="metadata4625"><rdf:RDF><cc:Work
       rdf:about=""><dc:format>image/svg+xml</dc:format><dc:type
         rdf:resource="http://purl.org/dc/dcmitype/StillImage" /><dc:title></dc:title></cc:Work></rdf:RDF></metadata><defs
   id="defs4623" />
<rect
   ry="20"
   y="2.8728874e-15"
   x="0"
   height="91"
   width="91"
   id="rect3451"
   style="fill:#353f40;fill-opacity:1;fill-rule:evenodd;stroke:none;stroke-width:0.17773438px;stroke-linecap:butt;stroke-linejoin:miter;stroke-opacity:1" /><g
   id="g4601">
	<path
   id="path4603"
   fill="#FFFFFF"
   d="M45.5,23.5c-12.1,0-22,9.9-22,22c0,12.1,9.9,22,22,22c12.1,0,22-9.9,22-22C67.5,33.4,57.6,23.5,45.5,23.5z M45.5,59.5   c-7.7,0-14-6.3-14-14c0-7.7,6.3-14,14-14c7.7,0,14,6.3,14,14C59.5,53.2,53.2,59.5,45.5,59.5z" />
	<path
   id="path4605"
   fill="#FFFFFF"
   d="M45.5,16.2c2.2,0,4-1.8,4-4V4.1c0-2.2-1.8-4-4-4c-2.2,0-4,1.8-4,4v8.1C41.5,14.5,43.3,16.2,45.5,16.2z" />
	<path
   id="path4607"
   fill="#FFFFFF"
   d="M86.9,41.5h-8.1c-2.2,0-4,1.8-4,4c0,2.2,1.8,4,4,4h8.1c2.2,0,4-1.8,4-4C90.9,43.3,89.1,41.5,86.9,41.5z" />
	<path
   id="path4609"
   fill="#FFFFFF"
   d="M45.5,74.8c-2.2,0-4,1.8-4,4v8.1c0,2.2,1.8,4,4,4c2.2,0,4-1.8,4-4v-8.1C49.5,76.5,47.7,74.8,45.5,74.8z" />
	<path
   id="path4611"
   fill="#FFFFFF"
   d="M16.2,45.5c0-2.2-1.8-4-4-4H4.1c-2.2,0-4,1.8-4,4c0,2.2,1.8,4,4,4h8.1C14.5,49.5,16.2,47.7,16.2,45.5z" />
	<path
   id="path4613"
   fill="#FFFFFF"
   d="M69,26c1,0,2-0.4,2.8-1.2l5.8-5.8c1.6-1.6,1.6-4.1,0-5.7c-1.6-1.6-4.1-1.6-5.7,0l-5.8,5.8c-1.6,1.6-1.6,4.1,0,5.7   C67,25.6,68,26,69,26z" />
	<path
   id="path4615"
   fill="#FFFFFF"
   d="M71.8,66.2c-1.6-1.6-4.1-1.6-5.7,0c-1.6,1.6-1.6,4.1,0,5.7l5.8,5.8c0.8,0.8,1.8,1.2,2.8,1.2c1,0,2-0.4,2.8-1.2   c1.6-1.6,1.6-4.1,0-5.7L71.8,66.2z" />
	<path
   id="path4617"
   fill="#FFFFFF"
   d="M19.2,66.2l-5.8,5.8c-1.6,1.6-1.6,4.1,0,5.7c0.8,0.8,1.8,1.2,2.8,1.2c1,0,2-0.4,2.8-1.2l5.8-5.8c1.6-1.6,1.6-4.1,0-5.7   C23.3,64.6,20.7,64.6,19.2,66.2z" />
	<path
   id="path4619"
   fill="#FFFFFF"
   d="M19.2,24.8C19.9,25.6,21,26,22,26c1,0,2-0.4,2.8-1.2c1.6-1.6,1.6-4.1,0-5.7l-5.8-5.8c-1.6-1.6-4.1-1.6-5.7,0   c-1.6,1.6-1.6,4.1,0,5.7L19.2,24.8z" />
</g>
</svg>